<svg clip-rule="evenodd" fill-rule="evenodd" stroke-linejoin="round" stroke-miterlimit="2" viewBox="0 0 24 24" xmlns="http://www.w3.org/2000/svg"><path d="m22 17.75c0-.414-.336-.75-.75-.75h-14.5c-.414 0-.75.336-.75.75s.336.75.75.75h14.5c.414 0 .75-.336.75-.75zm-18.953-1.494c-.621 0-.578.751-.06.751.108.003.371-.076.52.079.218.228.07.693-.293.693-.258 0-.349-.202-.456-.488-.123-.355-.758-.26-.758.203 0 .34.416 1.006 1.21 1.006.187 0 .358-.03.514-.09.474-.181.765-.619.765-1.054 0-.29-.129-.58-.418-.794.671-.726.046-1.562-.815-1.562-.75 0-1.162.49-1.162.864 0 .306.254.404.376.404.395 0 .329-.283.494-.482.104-.13.501-.124.501.174 0 .358-.518.306-.418.296zm18.953-2.506c0-.414-.336-.75-.75-.75h-14.5c-.414 0-.75.336-.75.75s.336.75.75.75h14.5c.414 0 .75-.336.75-.75zm-18.785-1.032c.214-.21.511-.426.8-.686.805-.713.535-2.002-.77-2.002-.813 0-1.24.596-1.24 1.028 0 .478.513.548.708.308.176-.212.152-.595.519-.595.346 0 .517.373.097.792-.065.065-1.065.825-1.258 1.246-.043.096-.071.19-.071.283 0 .159.127.438.494.438h1.597c.344 0 .434-.256.434-.404 0-.314-.284-.408-.497-.408zm18.785-2.968c0-.414-.336-.75-.75-.75h-14.5c-.414 0-.75.336-.75.75s.336.75.75.75h14.5c.414 0 .75-.336.75-.75zm-19.04-1.738c0 .226.113.497.439.497.015 0 .443.032.443-.58v-2.45c0-.335-.206-.479-.401-.479-.224 0-.272.108-.414.306-.183.254-.369.387-.631.511-.23.108-.396.181-.396.428 0 .208.173.388.378.388.18 0 .434-.169.582-.271zm19.04-2.262c0-.414-.336-.75-.75-.75h-14.5c-.414 0-.75.336-.75.75s.336.75.75.75h14.5c.414 0 .75-.336.75-.75z" fill-rule="nonzero"/></svg>