<svg width="119" height="229" viewBox="0 0 119 229" fill="none" xmlns="http://www.w3.org/2000/svg">
<path d="M14.237 1.02808L1.00854 15.8692L5.43357 211.61L30.3207 227.662M14.237 1.02808L18.6235 11.4256V15.8692M14.237 1.02808L95.6522 6.06438L94.4611 19.735M18.6235 105.491L36.0069 110.365M18.6235 105.491L95.6522 98.588M18.6235 105.491V15.8692M36.0069 110.365V122.874L30.3207 142.045V227.662M36.0069 110.365L115.613 102.388M30.3207 227.662L101.804 207.841L106.84 210.278V130.51L115.613 110.365V102.388M115.613 102.388L118.7 102.079L98.392 98.3424L95.6522 98.588M95.6522 98.588L91.7311 51.0662L94.4611 19.735M18.6235 15.8692L94.4611 19.735" stroke="#38F8FF" stroke-width="2"/>
</svg>
