<svg width="164" height="260" viewBox="0 0 164 260" fill="none" xmlns="http://www.w3.org/2000/svg">
<path d="M9.90664 213.702L14.2249 150.816M14.2249 150.816L11.7959 88.1997M14.2249 150.816L105.45 189.411M11.7959 88.1997L1 86.3104V4.26149L11.7959 1.02271M11.7959 88.1997L19.8539 87.7582M11.7959 88.1997V1.02271M11.7959 1.02271L78.4607 11.2788V84.9609H70.9036M70.9036 84.9609L162.939 122.477M70.9036 84.9609L19.8539 87.7582M162.939 122.477L161.049 173.487M162.939 122.477L105.45 129.764M161.049 173.487V233.944M161.049 173.487L105.45 189.411M105.45 189.411V259.855M105.45 189.411V129.764M19.8539 87.7582L105.45 129.764" stroke="#38F8FF" stroke-width="2"/>
</svg>
